<svg width="30" height="30" viewBox="0 0 30 30" fill="none" xmlns="http://www.w3.org/2000/svg">
<path d="M12.6 0C11.6133 0 10.8 0.813281 10.8 1.8V3H6.11251C6.03751 2.98594 5.96251 2.98594 5.88751 3H4.80001C4.78126 3 4.76251 3 4.74376 3C4.41329 3.01641 4.15548 3.29766 4.17188 3.62813C4.18829 3.95859 4.46954 4.21641 4.80001 4.2H5.45626L7.61251 28.5C7.68751 29.3391 8.40235 30 9.24376 30H20.7563C21.5977 30 22.3125 29.3391 22.3875 28.5L24.5438 4.2H25.2C25.4156 4.20234 25.6172 4.08984 25.7274 3.90234C25.8352 3.71484 25.8352 3.48516 25.7274 3.29766C25.6172 3.11016 25.4156 2.99766 25.2 3H19.2V1.8C19.2 0.813281 18.3867 0 17.4 0H12.6ZM12.6 1.2H17.4C17.7375 1.2 18 1.4625 18 1.8V3H12V1.8C12 1.4625 12.2625 1.2 12.6 1.2ZM6.65626 4.2H23.3438L21.1875 28.4063C21.1688 28.6148 20.9461 28.8 20.7563 28.8H9.24376C9.05392 28.8 8.83126 28.6148 8.81251 28.4063L6.65626 4.2ZM11.3438 5.98125C11.318 5.98594 11.2922 5.99297 11.2688 6C10.9899 6.06328 10.793 6.31406 10.8 6.6V26.4C10.7977 26.6156 10.9102 26.8172 11.0977 26.9273C11.2852 27.0352 11.5149 27.0352 11.7024 26.9273C11.8899 26.8172 12.0024 26.6156 12 26.4V6.6C12.007 6.42656 11.9367 6.26016 11.8125 6.14297C11.6859 6.02344 11.5149 5.96484 11.3438 5.98125ZM14.9438 5.98125C14.918 5.98594 14.8922 5.99297 14.8688 6C14.5899 6.06328 14.393 6.31406 14.4 6.6V26.4C14.3977 26.6156 14.5102 26.8172 14.6977 26.9273C14.8852 27.0352 15.1149 27.0352 15.3024 26.9273C15.4899 26.8172 15.6024 26.6156 15.6 26.4V6.6C15.607 6.42656 15.5367 6.26016 15.4125 6.14297C15.2859 6.02344 15.1149 5.96484 14.9438 5.98125ZM18.5438 5.98125C18.518 5.98594 18.4922 5.99297 18.4688 6C18.1899 6.06328 17.993 6.31406 18 6.6V26.4C17.9977 26.6156 18.1102 26.8172 18.2977 26.9273C18.4852 27.0352 18.7149 27.0352 18.9024 26.9273C19.0899 26.8172 19.2024 26.6156 19.2 26.4V6.6C19.207 6.42656 19.1367 6.26016 19.0125 6.14297C18.8859 6.02344 18.7149 5.96484 18.5438 5.98125Z" fill="#EF4444"/>
</svg>
